<svg xmlns="http://www.w3.org/2000/svg" width="40" height="24" viewBox="0 0 64 40" fill="none">
  <rect width="64" height="40" rx="6" fill="#f7931a"/>
  <path d="M36.6 23.3c1.7-1 2.5-2.6 2.2-4.3-.3-1.7-1.6-2.7-3.6-3.1 1.2-.8 1.8-2 1.6-3.3-.2-1.3-1-2.2-2.4-2.8-1.4-.6-3.4-.8-6-.7l-.6.1.8-3.2-2.7-.7-2.1 8.1-1.8-.5-.7 2.6 1.8.5-1.1 4.2-1.8-.5-.7 2.6 1.8.5-1 3.7 2.7.7 1-3.8.9.2c2.5.6 4.5.6 6 .1 1.5-.5 2.6-1.2 3.3-2zm-6.4-9.2c2.1.6 2.4 2.3.6 3-1 .4-2.6.4-4.6 0l.8-3.2c1.5-.1 2.6 0 3.2.2zm-1.6 6.2c2.6.6 3.7.1 4.2-.2.9-.5 1.1-1.7-.2-2.1-.8-.3-2-.4-3.7-.4-.4 0-.9 0-1.4.1l-.7 2.6c.6 0 1.2.1 1.8.2z" fill="#fff"/>
</svg>

