<svg xmlns="http://www.w3.org/2000/svg" width="40" height="24" viewBox="0 0 64 40" fill="none">
  <rect width="64" height="40" rx="6" fill="#0a47a1"/>
  <path d="M12 26h6l3-12h-6l-3 12zm11.5 0h5.7l3.6-12h-5.6l-3.7 12zm19.6-7.3c-1-0-1.8.2-2.4.6-.5.3-.9.8-1.1 1.4-.2.7-.1 1.3.4 1.8.4.4 1 .7 1.7.8.5.1 1.2.2 2.2.4.4.1.7.2.9.3.2.1.3.3.3.6 0 .3-.2.6-.6.8-.5.3-1.2.4-2.1.4-1 0-1.8-.2-2.4-.6-.4-.3-.7-.6-.9-1.1l-3.9.3c.1.9.6 1.7 1.3 2.3 1.1 1 2.8 1.5 5.1 1.5 1.5 0 2.8-.2 3.9-.6 1.1-.4 1.9-.9 2.4-1.6.6-.7.9-1.4.9-2.2 0-.9-.3-1.6-.9-2.1-.6-.5-1.5-.9-2.7-1.1-.6-.1-1.4-.3-2.5-.5-.7-.1-1.1-.3-1.3-.4-.2-.1-.2-.3-.2-.5 0-.3.2-.5.5-.7.5-.2 1.1-.3 1.8-.3 1.6 0 2.6.5 3.2 1.6l3.6-.4c-.2-.8-.6-1.5-1.2-2-.6-.6-1.3-1-2.2-1.3-.9-.3-2-.5-3.2-.5zm7.6-4.7l-3.7 12h5.6l3.7-12h-5.6z" fill="#fff"/>
  <path d="M20 14l3 12h6l-3-12h-6z" fill="#f4b400"/>
</svg>

